<?xml version="1.0" standalone="no"?>
<!DOCTYPE svg PUBLIC "-//W3C//DTD SVG 20010904//EN"
 "http://www.w3.org/TR/2001/REC-SVG-20010904/DTD/svg10.dtd">
<svg version="1.0" xmlns="http://www.w3.org/2000/svg"
 width="260.000000pt" height="260.000000pt" viewBox="0 0 260.000000 260.000000"
 preserveAspectRatio="xMidYMid meet">
<metadata>
Created by potrace 1.11, written by Peter Selinger 2001-2013
</metadata>
<g transform="translate(0.000000,260.000000) scale(0.100000,-0.100000)"
fill="#000000" stroke="none">
<path d="M515 2581 c-82 -23 -175 -81 -230 -144 -207 -235 -142 -599 135 -746
151 -80 337 -74 484 17 21 13 61 47 88 75 172 177 180 462 18 649 -51 58 -146
123 -214 144 -76 23 -209 26 -281 5z"/>
<path d="M1751 2584 c-248 -65 -405 -326 -346 -576 52 -226 263 -386 491 -373
201 11 370 137 435 326 31 91 31 230 -1 314 -77 202 -249 322 -461 323 -35 0
-88 -7 -118 -14z"/>
<path d="M235 1389 c-104 -42 -179 -122 -215 -228 -20 -62 -21 -77 -18 -475
l3 -411 31 -65 c40 -83 92 -135 174 -174 l65 -31 1025 0 1025 0 65 31 c83 40
135 92 174 174 l31 65 0 430 0 430 -31 65 c-48 100 -123 164 -233 199 -23 8
-346 11 -1040 10 -984 0 -1007 -1 -1056 -20z m525 -224 c0 -6 -225 -332 -240
-348 -7 -7 -250 331 -250 347 0 3 110 6 245 6 135 0 245 -2 245 -5z m1003 -7
c-8 -14 -108 -160 -188 -275 -27 -39 -52 -70 -55 -68 -4 2 -60 81 -125 174
-65 94 -122 171 -125 171 -6 0 -205 -282 -240 -340 -5 -8 -11 -12 -13 -10 -7
8 -213 304 -232 333 l-17 27 501 0 c399 0 501 -3 494 -12z m507 5 c-1 -8 -223
-330 -239 -346 -4 -4 -27 21 -51 55 -24 35 -78 113 -121 175 -44 62 -79 115
-79 118 0 3 110 5 245 5 135 0 245 -3 245 -7z m-1626 -775 c64 -92 116 -170
116 -173 0 -3 -111 -5 -246 -5 -193 0 -245 3 -241 13 5 12 187 278 197 287 3
3 14 18 24 34 10 15 21 24 26 20 4 -5 60 -84 124 -176z m460 65 c31 -46 81
-119 111 -163 l56 -80 -251 0 c-137 0 -250 2 -250 4 0 3 38 59 85 125 47 67
101 146 122 176 43 66 37 69 127 -62z m545 -61 c66 -95 121 -175 121 -177 0
-3 -110 -5 -245 -5 -135 0 -245 4 -245 8 0 5 19 35 41 68 23 32 71 102 107
154 66 96 93 132 97 128 2 -2 57 -81 124 -176z m497 11 c64 -93 119 -174 121
-180 4 -10 -48 -13 -241 -13 -135 0 -246 2 -246 4 0 4 140 210 157 231 4 6 25
36 47 68 21 31 40 57 42 57 1 0 55 -75 120 -167z"/>
</g>
</svg>
